<svg xmlns="http://www.w3.org/2000/svg" width="92.135" height="92.136" viewBox="0 0 92.135 92.136">
    <g id="calendar-with-a-clock-time-tools" transform="translate(-.001)">
        <path id="Path_804" fill="#768ff8" d="M11.518 14.4V2.879a2.879 2.879 0 0 1 5.759 0V14.4a2.879 2.879 0 0 1-5.759 0zm48.948 2.879a2.878 2.878 0 0 0 2.879-2.879V2.879a2.88 2.88 0 0 0-5.759 0V14.4a2.878 2.878 0 0 0 2.879 2.876zM92.136 69.1A23.034 23.034 0 1 1 69.1 46.068 23.035 23.035 0 0 1 92.136 69.1zm-5.758 0A17.276 17.276 0 1 0 69.1 86.377 17.3 17.3 0 0 0 86.379 69.1zM5.76 68.529V28.792H69.1v11.517h5.759v-22.46a6.283 6.283 0 0 0-6.236-6.333h-2.4V14.4a5.758 5.758 0 1 1-11.516 0v-2.88H20.155v2.88a5.758 5.758 0 1 1-11.516 0v-2.88H6.24A6.285 6.285 0 0 0 0 17.849v50.68a6.292 6.292 0 0 0 6.24 6.332h34.07V69.1H6.24a.545.545 0 0 1-.48-.571zm71.98.571H69.1v-8.637a2.879 2.879 0 0 0-5.758 0v11.518a2.877 2.877 0 0 0 2.878 2.879h11.52a2.88 2.88 0 0 0 0-5.759z" data-name="Path 804"/>
    </g>
</svg>
