<?xml version="1.0" standalone="no"?>
<!DOCTYPE svg PUBLIC "-//W3C//DTD SVG 20010904//EN"
 "http://www.w3.org/TR/2001/REC-SVG-20010904/DTD/svg10.dtd">
<svg version="1.0" xmlns="http://www.w3.org/2000/svg"
 width="200.000000pt" height="200.000000pt" viewBox="0 0 200.000000 200.000000"
 preserveAspectRatio="xMidYMid meet">
<metadata>
Created by potrace 1.10, written by Peter Selinger 2001-2011
</metadata>
<g transform="translate(0.000000,200.000000) scale(0.100000,-0.100000)"
fill="#000000" stroke="none">
<path d="M479 1793 c-49 -8 -132 -66 -161 -113 -21 -33 -57 -160 -143 -490
-164 -634 -151 -571 -137 -638 38 -179 180 -313 365 -344 183 -30 370 72 454
247 l35 75 108 0 108 0 35 -75 c64 -134 179 -220 327 -247 156 -27 334 51 426
186 37 54 74 159 74 207 0 55 -260 1031 -287 1077 -47 83 -153 127 -287 120
-76 -3 -102 -21 -77 -52 11 -13 34 -16 108 -16 111 0 159 -19 198 -78 17 -26
54 -153 124 -420 55 -210 103 -387 106 -392 3 -6 -10 -1 -29 11 -83 49 -261
65 -381 34 -147 -37 -285 -142 -321 -243 l-19 -52 -105 0 -105 0 -19 52 c-36
101 -172 204 -321 243 -118 30 -298 15 -380 -34 l-34 -20 9 22 c5 12 50 182
100 377 50 195 96 368 102 383 34 86 93 117 221 117 74 0 97 3 108 16 9 11 10
20 2 32 -8 14 -27 17 -94 18 -46 1 -96 -1 -110 -3z m-89 -77 c0 -2 -8 -10 -17
-17 -16 -13 -17 -12 -4 4 13 16 21 21 21 13z m1261 -43 c13 -16 12 -17 -3 -4
-17 13 -22 21 -14 21 2 0 10 -8 17 -17z m-1513 -851 c17 -17 16 -19 -15 -61
-18 -23 -33 -36 -33 -27 0 18 23 106 27 106 2 0 11 -8 21 -18z m384 7 c115
-24 227 -95 279 -178 38 -59 37 -93 -6 -179 -41 -81 -94 -133 -174 -171 -49
-23 -68 -26 -161 -26 -100 0 -108 1 -168 34 -224 122 -266 398 -75 495 70 35
204 46 305 25z m1243 -18 c94 -42 138 -107 139 -206 0 -115 -77 -231 -196
-296 -60 -33 -68 -34 -168 -34 -99 0 -109 2 -172 33 -101 50 -182 154 -195
253 -13 97 125 223 290 265 80 21 240 13 302 -15z m138 -35 c23 -85 22 -88
-12 -34 -16 25 -34 49 -40 52 -9 6 14 43 29 45 3 1 14 -28 23 -63z m-1113 -51
c13 -14 21 -25 18 -25 -2 0 -15 11 -28 25 -13 14 -21 25 -18 25 2 0 15 -11 28
-25z m450 22 c0 -2 -12 -14 -27 -28 l-28 -24 24 28 c23 25 31 32 31 24z m-369
-207 c-21 -22 -22 -20 -15 19 6 27 8 29 19 15 10 -14 9 -20 -4 -34z m274 33
c-2 -10 -4 -21 -4 -25 -1 -4 -8 -5 -16 -2 -11 5 -12 10 -2 25 15 24 26 25 22
2z m-1007 -178 c-3 -3 -9 2 -12 12 -6 14 -5 15 5 6 7 -7 10 -15 7 -18z m1082
-5 c6 -11 8 -20 6 -20 -3 0 -10 9 -16 20 -6 11 -8 20 -6 20 3 0 10 -9 16 -20z
m-1039 -37 c13 -16 12 -17 -3 -4 -10 7 -18 15 -18 17 0 8 8 3 21 -13z"/>
</g>
</svg>
