<?xml version="1.0" standalone="no"?>
<!DOCTYPE svg PUBLIC "-//W3C//DTD SVG 20010904//EN"
 "http://www.w3.org/TR/2001/REC-SVG-20010904/DTD/svg10.dtd">
<svg version="1.0" xmlns="http://www.w3.org/2000/svg"
 width="225.000000pt" height="225.000000pt" viewBox="0 0 225.000000 225.000000"
 preserveAspectRatio="xMidYMid meet">
<metadata>
Created by potrace 1.16, written by Peter Selinger 2001-2019
</metadata>
<g transform="translate(0.000000,225.000000) scale(0.100000,-0.100000)"
fill="#000000" stroke="none">
<path d="M1402 2029 c-24 -12 -54 -38 -67 -58 -48 -72 -71 -224 -40 -267 8
-12 28 -27 45 -34 61 -25 120 26 120 104 0 52 14 51 39 -2 13 -26 88 -167 167
-314 79 -147 144 -269 144 -272 0 -3 -33 -6 -72 -6 -134 0 -240 -44 -337 -140
-53 -53 -121 -161 -121 -193 0 -13 -8 -12 -61 4 -33 10 -71 19 -83 19 -21 0
-114 -22 -146 -34 -11 -5 -20 7 -33 44 -26 73 -102 167 -175 217 -80 54 -172
83 -268 83 -41 0 -74 2 -74 5 0 7 330 599 340 609 5 5 11 -12 16 -40 13 -86
85 -122 147 -74 33 27 41 64 27 142 -16 86 -49 141 -103 167 -53 26 -90 26
-142 2 -46 -21 -72 -48 -107 -111 -13 -25 -141 -252 -283 -505 -142 -253 -266
-479 -276 -501 -33 -73 -43 -182 -26 -267 65 -321 395 -493 682 -357 120 57
216 167 255 291 31 99 53 123 129 140 42 9 71 -1 126 -46 30 -25 44 -45 48
-69 15 -91 104 -216 202 -280 245 -163 574 -71 700 196 83 177 64 337 -63 538
-16 25 -136 245 -267 490 -131 245 -249 460 -263 479 -26 35 -75 61 -114 61
-13 0 -42 -10 -66 -21z m-757 -1062 c99 -51 155 -138 163 -253 6 -91 -15 -156
-69 -218 -50 -57 -97 -86 -166 -102 -237 -55 -440 200 -338 424 40 87 103 143
195 173 49 16 162 4 215 -24z m1230 0 c136 -69 199 -229 150 -377 -20 -59 -92
-143 -148 -172 -81 -41 -199 -39 -283 5 -47 24 -120 111 -138 164 -58 169 32
348 204 404 49 16 162 4 215 -24z"/>
</g>
</svg>
