<?xml version="1.0" standalone="no"?>
<!DOCTYPE svg PUBLIC "-//W3C//DTD SVG 20010904//EN"
 "http://www.w3.org/TR/2001/REC-SVG-20010904/DTD/svg10.dtd">
<svg version="1.0" xmlns="http://www.w3.org/2000/svg"
 width="820.000000pt" height="563.000000pt" viewBox="0 0 820.000000 563.000000"
 preserveAspectRatio="xMidYMid meet">

<g transform="translate(0.000000,563.000000) scale(0.100000,-0.100000)"
fill="#000000" stroke="none">
<path d="M4074 5196 c-67 -29 -98 -123 -60 -181 20 -30 73 -65 100 -65 15 0
17 -5 12 -27 -4 -16 -10 -65 -13 -110 -5 -69 -8 -83 -22 -83 -17 0 -1852 366
-1881 375 -8 3 -23 18 -32 35 -35 61 -112 62 -138 1 -33 -80 70 -142 127 -77
22 26 25 27 61 15 20 -6 40 -13 44 -15 6 -4 -692 -2100 -707 -2124 -4 -6 -62
-10 -131 -10 -91 0 -124 -3 -124 -12 0 -7 29 -40 64 -74 113 -108 284 -181
531 -225 100 -18 159 -22 360 -23 152 0 269 4 320 12 235 38 416 109 519 203
49 44 86 94 86 114 0 3 -37 5 -83 5 l-83 0 -16 48 c-9 26 -152 450 -318 942
-354 1052 -380 1130 -370 1130 8 0 206 -57 655 -190 171 -50 441 -130 600
-176 469 -138 517 -152 519 -156 1 -2 -3 -102 -10 -223 -7 -121 -24 -436 -39
-700 -14 -264 -50 -924 -80 -1466 -30 -542 -55 -1028 -55 -1080 -1 -140 -16
-234 -49 -305 -26 -55 -36 -66 -80 -88 -70 -36 -164 -60 -416 -105 -270 -49
-320 -65 -408 -138 l-29 -23 1301 0 c917 0 1301 3 1301 11 0 23 -62 99 -108
133 -104 76 -201 102 -567 151 -291 39 -343 52 -402 94 -80 58 -108 159 -167
601 -68 514 -103 954 -126 1595 -19 548 -8 1491 18 1517 8 8 1717 -327 1731
-339 3 -2 -43 -146 -102 -321 -58 -174 -219 -656 -358 -1069 l-251 -753 -94 0
c-63 0 -94 -4 -94 -11 0 -6 28 -39 63 -73 109 -107 287 -184 527 -228 97 -18
155 -21 375 -22 229 0 274 2 380 22 145 28 258 65 351 117 74 42 152 113 178
163 l17 32 -124 0 -123 0 -86 257 c-47 142 -208 622 -358 1066 -150 445 -270
810 -268 812 1 2 27 -2 56 -7 47 -10 52 -13 52 -38 0 -36 29 -60 73 -60 85 0
107 107 29 139 -29 12 -56 6 -93 -20 -15 -11 -271 61 -1249 351 -107 32 -292
86 -410 121 -118 34 -221 66 -227 72 -8 6 -13 35 -13 78 0 37 -4 71 -10 74 -5
3 -10 23 -10 43 0 33 5 40 37 57 96 52 96 183 -1 229 -41 19 -61 20 -102 2z
m-1552 -961 c365 -1084 428 -1274 428 -1290 0 -13 -74 -15 -660 -15 -363 0
-660 2 -660 4 0 3 120 361 266 798 146 436 289 863 316 948 62 193 80 238 86
219 3 -8 104 -306 224 -664z m3457 -387 c27 -84 176 -528 330 -987 155 -459
279 -836 278 -838 -2 -2 -301 -2 -665 -1 l-661 3 140 415 c76 228 225 673 330
988 105 314 193 572 195 572 2 0 26 -69 53 -152z m-3119 -1049 c-55 -46 -198
-103 -340 -134 -115 -26 -374 -31 -496 -11 -155 27 -329 90 -394 145 l-25 20
640 0 640 0 -25 -20z m3755 -909 c-12 -20 -137 -82 -221 -111 -237 -80 -598
-82 -834 -3 -78 26 -167 70 -210 104 -25 19 -21 20 623 20 419 0 646 -3 642
-10z"/>
</g>
</svg>
