<svg xmlns="http://www.w3.org/2000/svg" width="31.083" height="29.003" viewBox="0 0 31.083 29.003">
    <g id="prefix__PoD" transform="translate(-21.001 -45.47)">
        <path id="prefix__Path_776" fill="#fff" d="M30.438 25.37l-3.4-4.263a1.692 1.692 0 0 0-1.323-.637H8.155a1.692 1.692 0 0 0-1.323.637l-3.4 4.263a3.483 3.483 0 0 0-.645 1.9v3.13a2.191 2.191 0 0 1 1.137-.906 2.371 2.371 0 0 1 1.767-2.112 2.421 2.421 0 0 1 .622-.083 2.371 2.371 0 0 1 1.975 1.06 2.254 2.254 0 0 1 .387-.034 2.2 2.2 0 0 1 1.1.3l1.882-.49a2.859 2.859 0 0 1 3.489 2.049l3.689 14.177a2.861 2.861 0 0 1-2.049 3.489l-1.646.428h13.829a2.115 2.115 0 0 0 2.115-2.115V27.216a3.458 3.458 0 0 0-.646-1.846zm-25.894-.036l1.126-1.412h7.677l.758-1.246H6.663l.831-1.042a.842.842 0 0 1 .661-.319h17.562a.841.841 0 0 1 .661.319l.831 1.042h-7.575l.423 1.246H28.2l1.125 1.412zm.343 5.209l-.475.123a.946.946 0 0 0-.677 1.153v.018a.946.946 0 0 0 1.154.677l4.025-1.047a.946.946 0 0 0 .686-1.152v-.018a.946.946 0 0 0-1.153-.677l-.475.123a.475.475 0 0 1-.579-.34v-.015a1.1 1.1 0 0 0-1.356-.788l-.025.006a1.1 1.1 0 0 0-.789 1.344v.015a.475.475 0 0 1-.335.578zm1.3-1.325a.478.478 0 1 1-.342.583.478.478 0 0 1 .34-.583zm5.93 14.582a.318.318 0 0 1-.228.388l-5.856 1.523a.318.318 0 0 1-.388-.228l-.08-.308a.318.318 0 0 1 .228-.388l5.856-1.523a.318.318 0 0 1 .388.228zm.714-6.109l.08.308a.318.318 0 0 1-.228.388L4.67 40.471a.318.318 0 0 1-.388-.228l-.08-.308a.318.318 0 0 1 .228-.388l8.013-2.085a.318.318 0 0 1 .388.228zm-.869-2.077L3.949 37.7a.319.319 0 0 1-.388-.228l-.08-.308a.318.318 0 0 1 .228-.388l8.013-2.085a.318.318 0 0 1 .388.228l.08.308a.318.318 0 0 1-.228.386zm-.178 5.64l-6.472 1.683a.319.319 0 0 1-.388-.228l-.08-.308a.318.318 0 0 1 .228-.388l6.472-1.684a.318.318 0 0 1 .388.228l.08.308a.318.318 0 0 1-.228.388zm5.826 3.42L13.921 30.5a1.592 1.592 0 0 0-1.942-1.14l-1.879.489a1.6 1.6 0 0 1-1.021 2.24l-3.966 1.028a1.623 1.623 0 0 1-1.953-1 1.641 1.641 0 0 1-.087-.446l-1.881.489a1.592 1.592 0 0 0-1.14 1.94L3.74 48.282a1.592 1.592 0 0 0 1.942 1.14l10.787-2.806a1.592 1.592 0 0 0 1.14-1.942zM5.281 47.881L2.074 35.553l10.787-2.806 3.207 12.328z" data-name="Path 776" transform="translate(21 25)"/>
    </g>
</svg>
