<svg xmlns="http://www.w3.org/2000/svg" id="prefix__purchase_intent" width="29.332" height="29.332" data-name="purchase intent" viewBox="0 0 29.332 29.332">
    <g id="prefix__shopping-cart">
        <path id="prefix__Path_780" fill="#fff" d="M8.8 23.466a2.933 2.933 0 1 0 2.933 2.934A2.942 2.942 0 0 0 8.8 23.466zM0 0v2.933h2.933l5.28 11.146L6.16 17.6a5.211 5.211 0 0 0-.293 1.467A2.942 2.942 0 0 0 8.8 22h17.6v-2.934H9.386a.315.315 0 0 1-.293-.293v-.147l1.32-2.493h10.853a2.675 2.675 0 0 0 2.493-1.467l5.28-9.533a.807.807 0 0 0 .293-.733 1.386 1.386 0 0 0-1.467-1.467H6.16L4.84 0zm23.466 23.466A2.933 2.933 0 1 0 26.4 26.4a2.942 2.942 0 0 0-2.934-2.934z" data-name="Path 780"/>
    </g>
</svg>
