<svg xmlns="http://www.w3.org/2000/svg" id="prefix__return" width="31.333" height="31.333" viewBox="0 0 31.333 31.333">
    <defs>
        <style>
            .prefix__cls-1{fill:#fff;fill-rule:evenodd}
        </style>
    </defs>
    <path id="prefix__Path_777" d="M173.952 4.405l2.127 1.081V0H171v5.487l2.125-1.08a.914.914 0 0 1 .827-.002zm0 0" class="prefix__cls-1" data-name="Path 777" transform="translate(-160.535)"/>
    <path id="prefix__Path_778" d="M26.008 11.091V.918A.918.918 0 0 0 25.09 0h-7.71v6.98a.917.917 0 0 1-1.392.786L13 6.25 9.959 7.8a.917.917 0 0 1-1.328-.82V0H.918A.918.918 0 0 0 0 .918V25.09a.918.918 0 0 0 .918.918h10.173a11.456 11.456 0 0 1 14.917-14.917zm0 0" class="prefix__cls-1" data-name="Path 778"/>
    <path id="prefix__Path_779" d="M213.928 200.319a9.623 9.623 0 1 0 2.819 6.8 9.593 9.593 0 0 0-2.819-6.8zm-2.935 9.818a3.539 3.539 0 0 1-2.508 1.041H204.2a.918.918 0 1 1 0-1.836h4.284a1.744 1.744 0 0 0 0-3.488h-2.557l.545.544a.915.915 0 1 1-1.291 1.3l-2.109-2.105a.915.915 0 0 1 0-1.294l2.105-2.109a.915.915 0 0 1 1.3 1.291l-.539.54h2.551a3.59 3.59 0 0 1 2.508 6.119zm0 0" class="prefix__cls-1" data-name="Path 779" transform="translate(-185.414 -185.414)"/>
</svg>
