<svg xmlns="http://www.w3.org/2000/svg" width="36.828" height="36.597" viewBox="0 0 36.828 36.597">
    <g id="rfx" transform="translate(-3.001 -3)">
        <path id="Path_1038" fill="#fff" d="M34.775 15.4l-3.524-3.524-15.306 15.31 3.532 3.532L34.775 15.4zm.958-.958l2.344-2.342a1.357 1.357 0 0 0-.007-1.919l-1.6-1.6a1.356 1.356 0 0 0-1.921 0l-2.341 2.342 3.523 3.523zM15.068 28.226l-.868 4.219 4.249-.836-3.382-3.382zm13.684-4.894V36.89a2.7 2.7 0 0 1-2.706 2.71H5.708A2.71 2.71 0 0 1 3 36.876V5.722A2.721 2.721 0 0 1 5.724 3h13.542v8.135a2.707 2.707 0 0 0 2.719 2.708H27.4l6.208-6.208a2.7 2.7 0 0 1 3.836-.014l1.6 1.6a2.715 2.715 0 0 1-.014 3.836L28.754 23.331zM20.62 3v8.129a1.358 1.358 0 0 0 1.343 1.359h6.789z" data-name="Path 1038"/>
    </g>
</svg>
