<?xml version="1.0" standalone="no"?>
<!DOCTYPE svg PUBLIC "-//W3C//DTD SVG 20010904//EN"
 "http://www.w3.org/TR/2001/REC-SVG-20010904/DTD/svg10.dtd">
<svg version="1.0" xmlns="http://www.w3.org/2000/svg"
 width="318.000000pt" height="159.000000pt" viewBox="0 0 318.000000 159.000000"
 preserveAspectRatio="xMidYMid meet">

<g transform="translate(0.000000,159.000000) scale(0.100000,-0.100000)"
fill="#000000" stroke="none">
<path d="M2683 1190 c-70 -16 -81 -30 -252 -310 -104 -170 -116 -204 -83 -233
28 -25 42 -20 42 14 0 37 127 290 198 393 62 92 82 106 160 109 34 1 62 6 62
11 0 4 12 5 28 2 l27 -6 -25 15 c-27 15 -104 18 -157 5z"/>
<path d="M3020 1140 c0 -5 20 -10 45 -10 25 0 45 5 45 10 0 6 -20 10 -45 10
-25 0 -45 -4 -45 -10z"/>
<path d="M80 1130 c0 -5 10 -10 23 -10 18 0 19 2 7 10 -19 13 -30 13 -30 0z"/>
<path d="M130 1129 c0 -5 11 -9 25 -9 14 0 25 2 25 4 0 2 -11 6 -25 8 -14 3
-25 1 -25 -3z"/>
<path d="M293 1119 c-8 -8 7 -47 57 -148 84 -166 110 -232 110 -274 0 -49 11
-77 29 -77 17 0 51 47 51 71 0 16 -221 439 -230 439 -3 0 -11 -5 -17 -11z"/>
</g>
</svg>
